<!DOCTYPE svg PUBLIC "-//W3C//DTD SVG 1.1//EN" "http://www.w3.org/Graphics/SVG/1.1/DTD/svg11.dtd">

<!-- Uploaded to: SVG Repo, www.svgrepo.com, Transformed by: SVG Repo Mixer Tools -->
<svg fill="#c98e26" xmlns="http://www.w3.org/2000/svg" width="27px" height="29px" viewBox="0 0 52 52" enable-background="new 0 0 52 52" xml:space="preserve" stroke="#c98e26">

<g id="SVGRepo_bgCarrier" stroke-width="0"/>

<g id="SVGRepo_tracerCarrier" stroke-linecap="round" stroke-linejoin="round"/>

<g id="SVGRepo_iconCarrier"> <g> <path d="M44.3,6.5c-9,0-15.9,7-15.9,16V44c0,0.8,0.7,1.5,1.5,1.5h17c0.8,0,1.5-0.7,1.5-1.5V27 c0-0.8-0.7-1.5-1.5-1.5H34.4v-3c0-5,4.9-10,9.9-10h2.6c0.8,0,1.5-0.7,1.5-1.5V8c0-0.8-0.7-1.5-1.5-1.5H44.3z"/> <path d="M19.5,6.5c-9,0-15.9,7-15.9,16V44c0,0.8,0.7,1.5,1.5,1.5h17c0.8,0,1.5-0.7,1.5-1.5V27 c0-0.8-0.7-1.5-1.5-1.5H9.6v-3c0-5,4.9-10,9.9-10h2.6c0.8,0,1.5-0.7,1.5-1.5V8c0-0.8-0.7-1.5-1.5-1.5H19.5z"/> </g> <path d="M30.5,8"/> </g>

</svg>